<svg width="38" height="38" viewBox="0 0 38 38" fill="none" xmlns="http://www.w3.org/2000/svg">
<g clip-path="url(#clip0_352_7020)">
<path d="M33.298 33.657H4.702C4.54801 33.6007 4.40669 33.5144 4.2862 33.4032C4.16572 33.292 4.06844 33.158 4 33.009V32.541C4.12 32.379 4.204 32.163 4.366 32.067C4.57838 31.9584 4.8117 31.897 5.05 31.887C5.494 31.887 5.938 31.887 6.376 31.887C6.376 31.809 6.376 31.779 6.376 31.755C6.376 29.615 6.376 27.477 6.376 25.341C6.36806 25.2287 6.32141 25.1227 6.244 25.041C5.88628 24.7111 5.67107 24.2549 5.644 23.769C5.644 22.923 5.608 22.071 5.644 21.225C5.66173 20.8757 5.76793 20.5366 5.95265 20.2396C6.13736 19.9426 6.39453 19.6974 6.7 19.527C7.11405 19.2583 7.59846 19.1184 8.092 19.125C8.476 19.125 8.866 19.125 9.292 19.125V18.729C9.292 17.025 9.292 15.315 9.292 13.605C9.28712 13.1958 9.43613 12.7997 9.70951 12.4953C9.98288 12.1908 10.3607 12.0001 10.768 11.961L11.068 11.907C10.978 11.685 11.206 11.427 10.894 11.277C10.5679 11.1521 10.2708 10.9616 10.0211 10.7174C9.77147 10.4732 9.5745 10.1804 9.44237 9.85714C9.31025 9.53386 9.24578 9.18693 9.25294 8.83776C9.2601 8.48859 9.33873 8.1446 9.484 7.827C9.91 6.789 10.498 5.811 11.014 4.827C11.152 4.50717 11.4108 4.25484 11.734 4.125H12.142C12.3189 4.22033 12.479 4.34396 12.616 4.491C13.3891 5.61531 14.0123 6.83559 14.47 8.121C14.6469 8.70602 14.6128 9.33454 14.3738 9.89702C14.1347 10.4595 13.7059 10.9203 13.162 11.199C12.748 11.415 12.748 11.415 12.832 11.925C13.0033 11.9442 13.1736 11.9723 13.342 12.009C13.7129 12.1119 14.0377 12.3378 14.2634 12.6496C14.4891 12.9614 14.6021 13.3406 14.584 13.725C14.584 15.393 14.584 17.061 14.584 18.729V19.125H16.348V18.759C16.348 17.085 16.348 15.417 16.348 13.749C16.3209 13.3687 16.4253 12.9907 16.6438 12.6783C16.8623 12.3658 17.1815 12.138 17.548 12.033C17.722 11.985 17.908 11.967 18.082 11.937C18.136 11.397 18.136 11.397 17.92 11.295C17.6027 11.1673 17.3144 10.977 17.0722 10.7355C16.83 10.4941 16.6388 10.2064 16.5101 9.88955C16.3813 9.5727 16.3176 9.2332 16.3228 8.89123C16.3279 8.54927 16.4018 8.21183 16.54 7.899C16.978 6.837 17.572 5.835 18.1 4.803C18.1688 4.64669 18.2686 4.50599 18.3934 4.38944C18.5182 4.27288 18.6654 4.18292 18.826 4.125H19.174C19.372 4.22262 19.5524 4.35238 19.708 4.509C20.4405 5.59125 21.0446 6.75508 21.508 7.977C21.7228 8.57543 21.7128 9.23151 21.4799 9.82312C21.247 10.4147 20.8071 10.9016 20.242 11.193C19.822 11.421 19.81 11.451 19.918 11.925C21.196 12.027 21.718 12.891 21.664 14.001C21.622 15.585 21.664 17.181 21.664 18.801V19.125H23.428V18.765C23.428 17.097 23.428 15.429 23.428 13.761C23.4043 13.3726 23.5147 12.9878 23.7408 12.671C23.9669 12.3543 24.2949 12.1248 24.67 12.021C24.838 11.979 25.018 11.961 25.222 11.931C25.144 11.709 25.384 11.433 25.036 11.295C24.7163 11.1662 24.4255 10.9749 24.1806 10.7323C23.9357 10.4898 23.7417 10.2008 23.6098 9.88235C23.478 9.56389 23.4109 9.22233 23.4127 8.87765C23.4144 8.53297 23.4849 8.19211 23.62 7.875C24.07 6.855 24.622 5.877 25.132 4.875C25.279 4.54792 25.5359 4.28258 25.858 4.125L26.266 4.125C26.452 4.263 26.692 4.359 26.806 4.539C27.5323 5.59842 28.1343 6.73792 28.6 7.935C28.8435 8.56607 28.8318 9.26711 28.5676 9.88974C28.3033 10.5124 27.8071 11.0077 27.184 11.271C27.034 11.343 26.974 11.415 26.992 11.577C26.998 11.6889 26.998 11.8011 26.992 11.913H27.112C28.276 12.093 28.762 12.657 28.762 13.845V19.125C29.212 19.125 29.62 19.125 30.028 19.125C30.6054 19.1221 31.1631 19.3343 31.5924 19.7204C32.0217 20.1064 32.2918 20.6386 32.35 21.213C32.395 22.0604 32.395 22.9096 32.35 23.757C32.3216 24.2299 32.121 24.676 31.786 25.011C31.69 25.1258 31.6351 25.2694 31.63 25.419C31.63 27.465 31.63 29.517 31.63 31.563C31.63 31.659 31.63 31.755 31.63 31.875C32.068 31.875 32.488 31.875 32.902 31.875C33.1338 31.8422 33.3697 31.8906 33.5699 32.012C33.77 32.1334 33.922 32.3203 34 32.541V33.009C33.9316 33.158 33.8343 33.292 33.7138 33.4032C33.5933 33.5144 33.452 33.6007 33.298 33.657ZM29.842 31.857V30.339C29.842 28.871 29.842 27.397 29.842 25.917C29.8399 25.8626 29.8253 25.8093 29.7993 25.7614C29.7733 25.7136 29.7366 25.6724 29.692 25.641C29.032 25.437 28.36 25.263 27.7 25.041C26.6437 24.6537 25.5089 24.5302 24.394 24.681C23.5717 24.8364 22.7585 25.0367 21.958 25.281C20.731 25.7124 19.4213 25.8561 18.13 25.701C17.1696 25.5458 16.2212 25.3233 15.292 25.035C13.6737 24.4832 11.9183 24.4832 10.3 25.035C9.7 25.239 9.1 25.419 8.452 25.569C8.224 25.629 8.158 25.695 8.158 25.929C8.158 27.801 8.158 29.679 8.158 31.551C8.158 31.641 8.158 31.737 8.158 31.839L29.842 31.857ZM19.042 20.877H8.344C8.18035 20.8739 8.01698 20.892 7.858 20.931C7.73131 20.9517 7.61708 21.0194 7.53812 21.1206C7.45915 21.2218 7.42126 21.3491 7.432 21.477C7.432 22.143 7.432 22.803 7.432 23.469C7.42383 23.5221 7.42767 23.5764 7.44324 23.6279C7.45881 23.6794 7.48571 23.7267 7.52197 23.7664C7.55822 23.8061 7.60292 23.8372 7.65276 23.8574C7.7026 23.8776 7.75633 23.8863 7.81 23.883C7.94644 23.886 8.08239 23.8657 8.212 23.823C8.746 23.673 9.28 23.523 9.808 23.349C11.2402 22.8462 12.7785 22.7243 14.272 22.995C15.178 23.175 16.072 23.463 16.948 23.715C17.9482 24.0326 19.0101 24.1046 20.044 23.925C20.908 23.751 21.76 23.499 22.606 23.247C24.3059 22.7325 26.1201 22.7325 27.82 23.247L29.86 23.847C30.352 23.985 30.562 23.847 30.562 23.325V21.525C30.574 21.4525 30.5704 21.3783 30.5514 21.3074C30.5324 21.2364 30.4985 21.1703 30.4519 21.1135C30.4054 21.0567 30.3472 21.0105 30.2813 20.978C30.2155 20.9455 30.1434 20.9274 30.07 20.925C29.9256 20.8979 29.7789 20.8858 29.632 20.889L19.042 20.877ZM11.038 19.125H12.784V13.725H11.038V19.125ZM19.864 19.125V13.725H18.136V19.125H19.864ZM26.95 19.125V13.725H25.216V19.125H26.95ZM11.98 6.807H11.866C11.602 7.407 11.326 8.007 11.086 8.607C11.0128 8.78383 11.0046 8.98086 11.0628 9.16318C11.121 9.34549 11.2419 9.50131 11.404 9.603C11.5544 9.71363 11.7363 9.7733 11.923 9.7733C12.1097 9.7733 12.2916 9.71363 12.442 9.603C12.6005 9.50096 12.7188 9.34718 12.7768 9.1678C12.8347 8.98842 12.8288 8.79451 12.76 8.619C12.526 7.983 12.244 7.395 11.98 6.807ZM26.146 6.807H26.032C25.804 7.287 25.564 7.767 25.348 8.253C25.2707 8.42218 25.2201 8.60232 25.198 8.787C25.1776 8.95234 25.2094 9.11993 25.289 9.26627C25.3686 9.4126 25.4921 9.53035 25.642 9.603C25.7874 9.69591 25.9584 9.7407 26.1307 9.73101C26.303 9.72131 26.4679 9.65764 26.602 9.549C26.7481 9.46451 26.8618 9.33354 26.9249 9.17696C26.9879 9.02038 26.9968 8.84719 26.95 8.685C26.716 8.055 26.416 7.431 26.146 6.801V6.807ZM19.066 6.807H18.94C18.682 7.407 18.406 7.965 18.172 8.553C18.0939 8.72923 18.0812 8.92755 18.1362 9.11231C18.1911 9.29707 18.3102 9.45616 18.472 9.561C18.625 9.67636 18.8114 9.73875 19.003 9.73875C19.1946 9.73875 19.381 9.67636 19.534 9.561C19.692 9.45287 19.8076 9.29334 19.8612 9.10956C19.9148 8.92578 19.9031 8.7291 19.828 8.553C19.6 7.959 19.318 7.389 19.066 6.819V6.807Z" fill="#690127"/>
</g>
<defs>
<clipPath id="clip0_352_7020">
<rect width="30" height="29.532" fill="white" transform="translate(4 4.125)"/>
</clipPath>
</defs>
</svg>
