<svg width="38" height="38" viewBox="0 0 38 38" fill="none" xmlns="http://www.w3.org/2000/svg">
<g clip-path="url(#clip0_352_7064)">
<path d="M30.13 33.75H7.87C7.82619 33.7268 7.7799 33.7087 7.732 33.696C7.00938 33.5957 6.3245 33.3119 5.74263 32.8718C5.16076 32.4318 4.70129 31.85 4.408 31.182C4.24059 30.7585 4.10423 30.3233 4 29.88L4 28.476H5.764V10.842H14.2C13.7641 10.0653 13.6316 9.15468 13.828 8.286C14.0151 7.41357 14.5335 6.6478 15.274 6.15C15.9108 5.70372 16.6825 5.49171 17.458 5.55C17.9347 5.58194 18.4 5.71003 18.8259 5.92658C19.2517 6.14312 19.6294 6.44363 19.936 6.81C20.4494 6.47953 20.8731 6.0272 21.1694 5.49331C21.4657 4.95941 21.6253 4.36052 21.634 3.75L23.392 3.75C23.346 4.29166 23.2598 4.82914 23.134 5.358C22.7767 6.57922 21.9793 7.62459 20.896 8.292C20.8497 8.32399 20.8111 8.3659 20.7831 8.41469C20.7551 8.46347 20.7383 8.5179 20.734 8.574C20.8102 9.15753 20.7422 9.75084 20.536 10.302C20.47 10.47 20.392 10.638 20.308 10.842H32.248V28.476H34V29.88C33.9768 29.9238 33.9587 29.9701 33.946 30.018C33.8447 30.7459 33.5574 31.4354 33.1117 32.0198C32.6661 32.6042 32.0772 33.0637 31.402 33.354C30.9875 33.5147 30.5625 33.647 30.13 33.75ZM23.434 14.424C23.434 14.502 23.434 14.556 23.434 14.616C23.4951 15.0485 23.7114 15.444 24.0426 15.7288C24.3738 16.0136 24.7972 16.1683 25.234 16.164C25.4602 16.1548 25.6824 16.1008 25.8875 16.005C26.0927 15.9093 26.2768 15.7738 26.4292 15.6063C26.5815 15.4389 26.6992 15.2428 26.7752 15.0296C26.8512 14.8163 26.8841 14.5901 26.872 14.364C26.851 14.0323 26.851 13.6997 26.872 13.368V12.618H7.48C7.516 13.314 7.516 13.986 7.594 14.652C7.64549 15.0634 7.84266 15.4427 8.14976 15.7211C8.45687 15.9996 8.85358 16.1589 9.268 16.17C9.67508 16.1721 10.0716 16.0406 10.3967 15.7956C10.7219 15.5507 10.9577 15.2059 11.068 14.814C11.098 14.688 11.11 14.556 11.134 14.43H12.88C12.8955 14.8768 13.0767 15.3018 13.3884 15.6224C13.7 15.9429 14.1198 16.136 14.566 16.164C15.442 16.242 16.042 15.684 16.426 14.436H18.16C18.1658 14.8805 18.3422 15.3058 18.6526 15.624C18.963 15.9423 19.3838 16.1291 19.828 16.146C20.1948 16.1456 20.5549 16.0483 20.872 15.864C21.1196 15.7141 21.3243 15.5027 21.4662 15.2505C21.6082 14.9982 21.6825 14.7135 21.682 14.424H23.434ZM7.48 21.396C7.516 22.104 7.516 22.782 7.594 23.454C7.64963 23.8647 7.85003 24.242 8.15911 24.5181C8.46819 24.7942 8.86567 24.9509 9.28 24.96C9.68577 24.9638 10.0816 24.8344 10.4067 24.5917C10.7319 24.3489 10.9684 24.0061 11.08 23.616C11.1118 23.4795 11.1359 23.3413 11.152 23.202H12.688H12.886C13.102 24.312 13.66 24.906 14.596 24.924C14.9548 24.9205 15.3064 24.8233 15.616 24.642C15.8601 24.4902 16.0618 24.2791 16.2024 24.0284C16.3429 23.7776 16.4178 23.4954 16.42 23.208H18.166C18.334 24.264 18.844 24.834 19.792 24.918C20.1409 24.9324 20.4877 24.8581 20.8 24.702C21.0716 24.5567 21.2987 24.3404 21.4572 24.0763C21.6156 23.8122 21.6996 23.51 21.7 23.202H23.446C23.446 23.328 23.446 23.418 23.488 23.502C23.5651 23.902 23.7757 24.264 24.0852 24.5288C24.3947 24.7936 24.7849 24.9456 25.192 24.96C25.5827 24.9743 25.9659 24.8503 26.2743 24.61C26.5826 24.3697 26.7964 24.0283 26.878 23.646C26.9262 22.8968 26.9262 22.1452 26.878 21.396H7.48ZM5.944 30.24C6.1284 30.7683 6.47733 31.2235 6.93953 31.5388C7.40174 31.8542 7.95287 32.013 8.512 31.992C15.504 31.992 22.504 31.992 29.512 31.992C29.9243 31.9843 30.3314 31.8988 30.712 31.74C31.0326 31.6033 31.3204 31.4 31.5563 31.1434C31.7922 30.8868 31.9707 30.5829 32.08 30.252L5.944 30.24ZM17.272 25.548C16.9435 25.9238 16.5387 26.2252 16.0845 26.4322C15.6302 26.6391 15.1371 26.7468 14.638 26.748C14.1383 26.7449 13.6449 26.6365 13.19 26.4297C12.735 26.2229 12.3289 25.9225 11.998 25.548C11.4362 26.1543 10.6892 26.5574 9.874 26.694C9.06767 26.8137 8.24443 26.6617 7.534 26.262V28.476H26.89V26.31C26.1859 26.6804 25.3789 26.8071 24.5952 26.6703C23.8114 26.5335 23.095 26.141 22.558 25.554C22.2205 25.9181 21.8114 26.2084 21.3563 26.4068C20.9013 26.6052 20.4101 26.7073 19.9137 26.7067C19.4173 26.7061 18.9263 26.6029 18.4717 26.4035C18.0171 26.2041 17.6086 25.9128 17.272 25.548ZM7.528 19.608H26.902V17.514C26.1965 17.8896 25.3862 18.0197 24.5986 17.8839C23.811 17.7481 23.091 17.3541 22.552 16.764C22.2151 17.1256 21.8074 17.4139 21.3543 17.6111C20.9011 17.8083 20.4122 17.91 19.918 17.91C19.4238 17.91 18.9349 17.8083 18.4817 17.6111C18.0286 17.4139 17.6209 17.1256 17.284 16.764C16.9469 17.1294 16.5377 17.421 16.0823 17.6205C15.6269 17.82 15.1352 17.923 14.638 17.923C14.1408 17.923 13.6491 17.82 13.1937 17.6205C12.7383 17.421 12.3291 17.1294 11.992 16.764C11.4346 17.3569 10.6998 17.7528 9.898 17.892C9.08257 18.0204 8.24766 17.8704 7.528 17.466V19.608ZM28.69 12.612V28.452H30.49V12.612H28.69ZM19 9.078C19.014 8.8389 18.979 8.59946 18.8971 8.37438C18.8152 8.1493 18.6882 7.94332 18.5239 7.76909C18.3595 7.59485 18.1613 7.45604 17.9414 7.36116C17.7215 7.26628 17.4845 7.21734 17.245 7.21734C17.0055 7.21734 16.7685 7.26628 16.5486 7.36116C16.3287 7.45604 16.1305 7.59485 15.9661 7.76909C15.8018 7.94332 15.6748 8.1493 15.5929 8.37438C15.511 8.59946 15.476 8.8389 15.49 9.078C15.476 9.3171 15.511 9.55654 15.5929 9.78162C15.6748 10.0067 15.8018 10.2127 15.9661 10.3869C16.1305 10.5611 16.3287 10.7 16.5486 10.7948C16.7685 10.8897 17.0055 10.9387 17.245 10.9387C17.4845 10.9387 17.7215 10.8897 17.9414 10.7948C18.1613 10.7 18.3595 10.5611 18.5239 10.3869C18.6882 10.2127 18.8152 10.0067 18.8971 9.78162C18.979 9.55654 19.014 9.3171 19 9.078Z" fill="#690127"/>
</g>
<defs>
<clipPath id="clip0_352_7064">
<rect width="30" height="30" fill="white" transform="translate(4 3.75)"/>
</clipPath>
</defs>
</svg>
