<svg width="39" height="38" viewBox="0 0 39 38" fill="none" xmlns="http://www.w3.org/2000/svg">
<g clip-path="url(#clip0_352_7045)">
<path d="M34.4999 17.754C34.4999 17.58 34.4519 17.406 34.4339 17.232C34.3859 16.866 34.3379 16.482 34.2659 16.11C33.8736 13.8541 32.9656 11.7192 31.6127 9.87187C30.2597 8.02455 28.4983 6.51468 26.4659 5.46C24.6991 4.50821 22.7499 3.94368 20.7479 3.804L20.6219 3.75H20.5619H19.4279C19.2732 3.82616 19.1362 3.93384 19.0257 4.0661C18.9151 4.19836 18.8334 4.35229 18.7859 4.518C18.6278 5.28377 18.2218 5.97613 17.6307 6.48803C17.0396 6.99993 16.2964 7.30286 15.5159 7.35C15.3859 7.36222 15.26 7.40165 15.1463 7.46575C15.0326 7.52984 14.9336 7.61715 14.8559 7.722C14.7682 7.83886 14.7086 7.97429 14.6815 8.11785C14.6545 8.2614 14.6608 8.40925 14.6999 8.55C14.77 8.85188 14.8162 9.15884 14.8379 9.468C14.8613 10.5884 14.492 11.6817 13.794 12.5584C13.0959 13.4351 12.1131 14.0399 11.0159 14.268C10.8848 14.2775 10.7572 14.3146 10.6416 14.377C10.5259 14.4394 10.4248 14.5256 10.3448 14.6299C10.2649 14.7342 10.208 14.8543 10.1778 14.9822C10.1477 15.1101 10.145 15.243 10.1699 15.372C10.2 15.6978 10.192 16.026 10.1459 16.35C10.0629 16.8337 9.88297 17.2956 9.61695 17.7081C9.35094 18.1205 9.00431 18.4749 8.59789 18.75C8.18698 19.0166 7.72651 19.1976 7.24403 19.2822C6.76155 19.3667 6.26697 19.353 5.78989 19.242C5.62299 19.1987 5.44797 19.1974 5.28045 19.2382C5.11294 19.2791 4.95814 19.3608 4.82989 19.476C4.71714 19.5863 4.63431 19.7235 4.58917 19.8746C4.54404 20.0258 4.53809 20.1859 4.57189 20.34C4.57189 20.508 4.62589 20.682 4.64989 20.856C4.71589 21.312 4.78789 21.78 4.89589 22.236C5.68542 25.5835 7.61331 28.5527 10.3499 30.636C12.2555 32.1265 14.5038 33.1166 16.8899 33.516C17.2559 33.582 17.6279 33.63 17.9939 33.678L18.5039 33.75H20.5559L21.0599 33.684C21.4139 33.636 21.7799 33.588 22.1399 33.516C24.8873 33 27.4461 31.7568 29.5499 29.916C31.5931 28.0218 33.0946 25.6173 33.8999 22.95C34.0873 22.2999 34.2217 21.6358 34.3019 20.964C34.3459 20.652 34.3939 20.34 34.4459 20.028C34.4459 19.968 34.4759 19.902 34.4879 19.842V19.746L34.4999 17.754ZM27.6539 29.094C25.7012 30.6957 23.307 31.6647 20.7899 31.872C17.5765 32.1851 14.3598 31.3097 11.7482 29.4113C9.13671 27.5129 7.3115 24.7232 6.61789 21.57C6.61789 21.462 6.57589 21.354 6.56389 21.264V21.192L7.12789 21.096C7.54998 21.039 7.9658 20.9426 8.36989 20.808C9.34689 20.4891 10.2088 19.8904 10.8487 19.0862C11.4887 18.282 11.8785 17.3077 11.9699 16.284C11.9739 16.1648 12.0164 16.0501 12.091 15.9571C12.1657 15.8641 12.2684 15.7977 12.3839 15.768C13.4954 15.3579 14.474 14.6523 15.2141 13.7272C15.9542 12.802 16.4278 11.6924 16.5839 10.518C16.6318 10.1821 16.6558 9.84327 16.6559 9.504C16.6559 9.36 16.6559 9.216 16.6559 9.072L17.1059 8.862C17.4617 8.71057 17.8083 8.53827 18.1439 8.346C19.0729 7.79145 19.7955 6.94876 20.2019 5.946C20.3219 5.652 20.4659 5.616 20.7359 5.64C22.5971 5.81781 24.398 6.39493 26.0159 7.332C27.6801 8.24103 29.1191 9.51178 30.2271 11.0507C31.3351 12.5896 32.0837 14.3574 32.4179 16.224C33.3479 21.378 31.7459 25.71 27.6539 29.094Z" fill="#690127"/>
<path d="M9.48009 9.882H9.82209C10.4593 9.88175 11.0808 9.68374 11.6007 9.31528C12.1206 8.94682 12.5133 8.42608 12.7246 7.82493C12.936 7.22377 12.9556 6.57184 12.7807 5.95909C12.6057 5.34634 12.245 4.80298 11.7481 4.404C11.3043 4.08651 10.7998 3.86388 10.2661 3.75H9.37209H9.30009L9.21609 3.81C8.43524 3.97394 7.74856 4.43468 7.30083 5.09508C6.8531 5.75548 6.67931 6.56394 6.81609 7.35C6.9367 7.99891 7.25924 8.59313 7.73765 9.04784C8.21606 9.50254 8.82589 9.79449 9.48009 9.882ZM8.58609 6.816C8.5837 6.6506 8.61422 6.48638 8.67587 6.33288C8.73752 6.17938 8.82907 6.03967 8.94519 5.92187C9.06132 5.80407 9.1997 5.71053 9.3523 5.64669C9.5049 5.58285 9.66867 5.54998 9.83409 5.55C10.0816 5.55626 10.3218 5.63494 10.525 5.77631C10.7283 5.91769 10.8856 6.11555 10.9775 6.34542C11.0695 6.57528 11.092 6.82706 11.0424 7.0696C10.9927 7.31213 10.873 7.53479 10.6981 7.71C10.466 7.93788 10.1534 8.06508 9.82809 8.064C9.66403 8.06562 9.5013 8.0344 9.34949 7.97218C9.19768 7.90996 9.05985 7.818 8.94412 7.7017C8.82839 7.58541 8.73709 7.44714 8.6756 7.29503C8.61411 7.14292 8.58368 6.98005 8.58609 6.816Z" fill="#690127"/>
<path d="M5.4 14.172C5.55343 14.1727 5.7044 14.1335 5.838 14.058C6.04305 13.9448 6.19668 13.757 6.26705 13.5336C6.33742 13.3102 6.31914 13.0683 6.216 12.858C6.16114 12.7438 6.08324 12.6422 5.98721 12.5596C5.89118 12.477 5.77909 12.4152 5.658 12.378C5.55128 12.3469 5.43935 12.3378 5.32901 12.3512C5.21866 12.3646 5.11218 12.4003 5.016 12.456C4.873 12.553 4.75064 12.6774 4.656 12.822L4.506 13.002H4.5V13.488L4.536 13.56L4.614 13.698C4.68993 13.8407 4.80312 13.9601 4.94153 14.0436C5.07993 14.127 5.23838 14.1714 5.4 14.172Z" fill="#690127"/>
<path d="M22.17 14.508C22.8114 14.5107 23.4392 14.3231 23.9739 13.9688C24.5085 13.6144 24.926 13.1094 25.1734 12.5176C25.4207 11.9258 25.4869 11.2739 25.3635 10.6445C25.2401 10.0151 24.9326 9.4365 24.48 8.98197C24.1806 8.6782 23.8238 8.43692 23.4303 8.27212C23.0369 8.10733 22.6146 8.0223 22.188 8.02197C21.3303 8.02355 20.508 8.36459 19.9009 8.97057C19.2938 9.57655 18.9512 10.3982 18.948 11.256C18.9457 11.6817 19.0274 12.1037 19.1885 12.4977C19.3496 12.8918 19.5869 13.2501 19.8868 13.5523C20.1867 13.8544 20.5433 14.0944 20.9361 14.2584C21.329 14.4224 21.7503 14.5072 22.176 14.508H22.17ZM22.17 9.83397C22.3577 9.83276 22.5436 9.86933 22.7168 9.94148C22.8899 10.0136 23.0468 10.1199 23.178 10.254C23.3793 10.4518 23.5171 10.7051 23.5739 10.9815C23.6308 11.2579 23.6041 11.5449 23.4973 11.8061C23.3905 12.0673 23.2084 12.2909 22.9742 12.4483C22.74 12.6056 22.4642 12.6898 22.182 12.69C21.8033 12.69 21.4401 12.5395 21.1723 12.2717C20.9045 12.0039 20.754 11.6407 20.754 11.262C20.754 10.8832 20.9045 10.52 21.1723 10.2522C21.4401 9.98442 21.8033 9.83397 22.182 9.83397H22.17Z" fill="#690127"/>
<path d="M17.1001 20.55C16.8157 20.2503 16.4746 20.01 16.0966 19.8431C15.7186 19.6763 15.3112 19.5862 14.8981 19.578C14.4965 19.567 14.0968 19.6367 13.7226 19.7831C13.3485 19.9294 13.0076 20.1494 12.7201 20.43C12.1351 21.0036 11.7971 21.783 11.7781 22.602C11.771 22.9986 11.8427 23.3927 11.9889 23.7614C12.1352 24.1301 12.3531 24.4661 12.6301 24.75C12.9084 25.0458 13.2426 25.2835 13.6133 25.4493C13.9841 25.6152 14.384 25.7058 14.7901 25.716H14.8621C15.6632 25.7103 16.4311 25.3947 17.0049 24.8355C17.5786 24.2763 17.9137 23.5168 17.9401 22.716C17.9511 22.3173 17.8825 21.9203 17.7382 21.5484C17.594 21.1765 17.377 20.8371 17.1001 20.55ZM13.9621 21.75C14.075 21.6316 14.211 21.5375 14.3616 21.4735C14.5123 21.4095 14.6744 21.377 14.8381 21.378C15.1549 21.4 15.4516 21.5413 15.6682 21.7735C15.8849 22.0057 16.0054 22.3115 16.0054 22.629C16.0054 22.9466 15.8849 23.2524 15.6682 23.4846C15.4516 23.7167 15.1549 23.8581 14.8381 23.88C14.5237 23.8851 14.2199 23.7666 13.9921 23.55C13.873 23.4347 13.7782 23.2968 13.7133 23.1443C13.6484 22.9917 13.6146 22.8278 13.6141 22.662C13.6096 22.4941 13.6386 22.327 13.6994 22.1705C13.7602 22.0139 13.8515 21.871 13.9681 21.75H13.9621Z" fill="#690127"/>
<path d="M27.8398 14.55C27.0515 14.5611 26.2992 14.882 25.7456 15.4434C25.1921 16.0049 24.8818 16.7616 24.8818 17.55C24.8818 18.3457 25.1979 19.1088 25.7605 19.6714C26.3231 20.234 27.0862 20.55 27.8818 20.55C28.4727 20.553 29.051 20.3792 29.5424 20.0511C30.0338 19.723 30.416 19.2555 30.6397 18.7086C30.8635 18.1617 30.9187 17.5604 30.7983 16.982C30.6779 16.4035 30.3873 15.8742 29.9638 15.462C29.6902 15.1739 29.3608 14.9444 28.9956 14.7876C28.6305 14.6308 28.2372 14.55 27.8398 14.55ZM26.6998 17.55C26.697 17.4002 26.7242 17.2514 26.7799 17.1123C26.8355 16.9732 26.9185 16.8466 27.0238 16.74C27.2302 16.5128 27.5157 16.3732 27.8218 16.35C27.9736 16.3477 28.1242 16.3756 28.265 16.4322C28.4058 16.4888 28.5339 16.5729 28.6417 16.6796C28.7496 16.7864 28.8351 16.9135 28.8931 17.0537C28.9512 17.1939 28.9807 17.3443 28.9798 17.496C28.9804 17.648 28.9505 17.7986 28.8917 17.9388C28.833 18.079 28.7466 18.2059 28.6378 18.312C28.4193 18.5258 28.1275 18.6481 27.8218 18.654C27.5332 18.6361 27.2607 18.5146 27.0545 18.3117C26.8484 18.1089 26.7224 17.8384 26.6998 17.55Z" fill="#690127"/>
<path d="M23.7 21.996C22.9127 22.0086 22.162 22.3302 21.6097 22.8914C21.0574 23.4527 20.7479 24.2086 20.748 24.996C20.748 25.7916 21.0641 26.5547 21.6267 27.1173C22.1893 27.6799 22.9524 27.996 23.748 27.996C24.331 27.9798 24.8965 27.7941 25.3755 27.4616C25.8546 27.1291 26.2263 26.6642 26.4453 26.1237C26.6643 25.5833 26.721 24.9907 26.6086 24.4185C26.4961 23.8463 26.2193 23.3193 25.812 22.902C25.5387 22.6171 25.2108 22.3902 24.848 22.2345C24.4852 22.0789 24.0948 21.9978 23.7 21.996ZM22.566 24.948C22.5692 24.6482 22.6896 24.3616 22.9016 24.1496C23.1136 23.9376 23.4003 23.8171 23.7 23.814C23.852 23.8134 24.0026 23.8434 24.1428 23.9021C24.283 23.9609 24.4099 24.0472 24.516 24.156C24.7283 24.3794 24.8464 24.6758 24.846 24.984C24.8455 25.1363 24.8144 25.2871 24.7547 25.4272C24.6949 25.5674 24.6076 25.6941 24.498 25.8C24.3906 25.9058 24.263 25.989 24.1229 26.0446C23.9827 26.1003 23.8328 26.1273 23.682 26.124C23.5313 26.1209 23.3827 26.0879 23.2447 26.027C23.1068 25.966 22.9823 25.8783 22.8785 25.7689C22.7748 25.6596 22.6937 25.5307 22.64 25.3898C22.5864 25.2488 22.5613 25.0987 22.566 24.948Z" fill="#690127"/>
<path d="M29.7001 21.996C29.5809 21.9953 29.4628 22.0183 29.3526 22.0636C29.2424 22.1089 29.1423 22.1757 29.0581 22.26C28.9724 22.3469 28.9049 22.4501 28.8596 22.5634C28.8143 22.6767 28.792 22.7979 28.7941 22.92C28.7941 23.0381 28.8176 23.1551 28.8634 23.264C28.9091 23.3729 28.9761 23.4717 29.0605 23.5543C29.1449 23.637 29.2449 23.7021 29.3547 23.7456C29.4645 23.7892 29.582 23.8104 29.7001 23.808C29.9388 23.8064 30.1675 23.7113 30.3369 23.543C30.5063 23.3747 30.6029 23.1467 30.6061 22.908C30.603 22.6681 30.5068 22.4388 30.3377 22.2686C30.1686 22.0984 29.9399 22.0006 29.7001 21.996Z" fill="#690127"/>
<path d="M16.5719 17.25C16.7502 17.2462 16.9235 17.1905 17.0707 17.0897C17.2179 16.989 17.3325 16.8476 17.4006 16.6827C17.4687 16.5179 17.4873 16.3368 17.4541 16.1616C17.421 15.9864 17.3375 15.8246 17.2139 15.696C17.0374 15.5288 16.8031 15.4364 16.5599 15.438C16.3839 15.4455 16.2139 15.5041 16.0707 15.6067C15.9275 15.7094 15.8173 15.8515 15.7536 16.0158C15.6899 16.18 15.6756 16.3593 15.7122 16.5316C15.7488 16.704 15.8349 16.8619 15.9599 16.986C16.0396 17.0681 16.1346 17.1336 16.2396 17.1789C16.3447 17.2242 16.4576 17.2484 16.5719 17.25Z" fill="#690127"/>
<path d="M21.2998 20.3759C21.3011 20.2549 21.2784 20.1348 21.2331 20.0226C21.1878 19.9103 21.1208 19.8082 21.0358 19.7219C20.9531 19.6344 20.8537 19.5643 20.7434 19.5158C20.6331 19.4674 20.5143 19.4416 20.3938 19.4399C20.1613 19.4414 19.9383 19.5327 19.7716 19.6949C19.605 19.8571 19.5076 20.0775 19.4998 20.3099C19.4933 20.4337 19.5117 20.5575 19.5539 20.6739C19.5962 20.7904 19.6615 20.8972 19.7458 20.9879C19.9138 21.1584 20.1425 21.2555 20.3818 21.2579C20.6201 21.2612 20.85 21.1704 21.0218 21.0053C21.1937 20.8403 21.2935 20.6141 21.2998 20.3759Z" fill="#690127"/>
<path d="M18.3299 27.834C18.211 27.8316 18.0929 27.8532 17.9826 27.8976C17.8723 27.9419 17.7721 28.0081 17.688 28.0922C17.604 28.1763 17.5378 28.2765 17.4934 28.3868C17.449 28.4971 17.4274 28.6152 17.4299 28.734C17.4266 28.9697 17.5159 29.1972 17.6786 29.3678C17.8413 29.5383 18.0643 29.6382 18.2999 29.6461C18.5253 29.6388 18.7396 29.5466 18.8999 29.388C19.0729 29.2115 19.1717 28.9753 19.1759 28.7281C19.1762 28.499 19.0886 28.2786 18.9312 28.1123C18.7738 27.9459 18.5586 27.8463 18.3299 27.834Z" fill="#690127"/>
<path d="M27.828 12.702C27.9464 12.7028 28.0638 12.68 28.1733 12.6351C28.2829 12.5902 28.3824 12.5239 28.4661 12.4402C28.5499 12.3564 28.6161 12.2569 28.6611 12.1473C28.706 12.0378 28.7288 11.9204 28.728 11.802C28.7309 11.6802 28.7084 11.5591 28.6619 11.4465C28.6154 11.3339 28.546 11.2322 28.458 11.148C28.3728 11.0637 28.2715 10.9975 28.1602 10.9532C28.0488 10.9089 27.9297 10.8874 27.81 10.89C27.5892 10.9155 27.3855 11.0213 27.2376 11.1873C27.0898 11.3532 27.0081 11.5677 27.0081 11.79C27.0081 12.0122 27.0898 12.2268 27.2376 12.3927C27.3855 12.5586 27.5892 12.6644 27.81 12.69L27.828 12.702Z" fill="#690127"/>
<path d="M22.1699 16.14C21.9354 16.1447 21.7123 16.242 21.5493 16.4106C21.3863 16.5793 21.2967 16.8055 21.2999 17.04C21.2983 17.1582 21.32 17.2755 21.3638 17.3853C21.4076 17.4951 21.4725 17.5952 21.555 17.6799C21.6374 17.7646 21.7358 17.8322 21.8444 17.8789C21.953 17.9256 22.0697 17.9504 22.1879 17.952C22.3065 17.9511 22.4237 17.9268 22.5328 17.8805C22.642 17.8341 22.7409 17.7667 22.8239 17.682C22.9548 17.5577 23.045 17.3967 23.0826 17.2201C23.1202 17.0436 23.1035 16.8598 23.0347 16.6929C22.9659 16.526 22.8481 16.3839 22.697 16.2852C22.5458 16.1865 22.3684 16.1359 22.1879 16.14H22.1699Z" fill="#690127"/>
<path d="M8.95198 21.996C8.71266 21.9991 8.48402 22.0955 8.31478 22.2648C8.14554 22.434 8.04909 22.6627 8.04598 22.902C8.04439 23.0204 8.06634 23.1379 8.11056 23.2478C8.15477 23.3576 8.22037 23.4576 8.30354 23.5419C8.38672 23.6262 8.48581 23.6931 8.59507 23.7388C8.70432 23.7845 8.82156 23.808 8.93998 23.808C9.17443 23.81 9.40078 23.7223 9.57259 23.5627C9.74441 23.4032 9.84866 23.1839 9.86398 22.95C9.86827 22.8309 9.84752 22.7122 9.80308 22.6016C9.75864 22.491 9.69149 22.391 9.60598 22.308C9.52362 22.2146 9.42323 22.1388 9.31084 22.0852C9.19845 22.0316 9.07639 22.0012 8.95198 21.996Z" fill="#690127"/>
</g>
<defs>
<clipPath id="clip0_352_7045">
<rect width="30" height="30" fill="white" transform="translate(4.5 3.75)"/>
</clipPath>
</defs>
</svg>
