<svg width="39" height="38" viewBox="0 0 39 38" fill="none" xmlns="http://www.w3.org/2000/svg">
<g clip-path="url(#clip0_352_7026)">
<path d="M34.332 18.276C34.0993 17.191 33.561 16.1953 32.7806 15.4064C32.0002 14.6175 31.0104 14.0684 29.928 13.824C29.8256 13.8134 29.7312 13.7639 29.6643 13.6858C29.5973 13.6076 29.5628 13.5068 29.568 13.404C29.3454 11.1167 28.3803 8.9652 26.82 7.278C25.5325 5.84041 23.8706 4.78924 22.02 4.242C21.366 4.038 20.658 3.948 19.962 3.81L19.62 3.75H18.3C17.9152 3.843 17.5381 3.96535 17.172 4.116C16.7796 4.30992 16.4128 4.55177 16.08 4.836C15.9567 4.93021 15.8537 5.0485 15.7775 5.18369C15.7012 5.31887 15.6532 5.46813 15.6364 5.62243C15.6196 5.77672 15.6343 5.93282 15.6796 6.08127C15.7249 6.22971 15.7999 6.36741 15.9 6.486C15.9977 6.60617 16.1188 6.70519 16.256 6.77701C16.3931 6.84883 16.5435 6.89195 16.6979 6.90374C16.8523 6.91553 17.0075 6.89575 17.154 6.84559C17.3005 6.79543 17.4352 6.71595 17.55 6.612C17.7716 6.3931 18.0462 6.23545 18.347 6.15447C18.6478 6.07349 18.9644 6.07195 19.266 6.15C19.6447 6.2627 19.9721 6.50439 20.1912 6.83317C20.4104 7.16194 20.5076 7.55706 20.466 7.95C20.4148 8.38378 20.2 8.78169 19.8656 9.06263C19.5311 9.34357 19.1021 9.4864 18.666 9.462C17.6802 9.42557 16.7036 9.2581 15.762 8.964C14.4999 8.56171 13.1494 8.52634 11.868 8.862C11.1508 9.07628 10.4849 9.43465 9.91097 9.91518C9.33706 10.3957 8.86723 10.9883 8.53024 11.6567C8.19324 12.325 7.99617 13.0551 7.95108 13.8023C7.90599 14.5495 8.01383 15.298 8.268 16.002C8.268 16.074 8.31 16.152 8.328 16.23C7.63088 16.3182 6.96641 16.5774 6.39377 16.9847C5.82114 17.3919 5.35813 17.9345 5.046 18.564C4.83298 19.0626 4.67017 19.5811 4.56 20.112C4.53429 20.2027 4.51425 20.2948 4.5 20.388V20.742C4.56165 21.1484 4.65391 21.5495 4.776 21.942C5.0596 22.6754 5.52408 23.3251 6.12623 23.8307C6.72838 24.3364 7.44864 24.6815 8.22 24.834C8.28465 24.8537 8.35091 24.8678 8.418 24.876C8.664 24.876 8.754 25.008 8.802 25.254C9.3 27.708 9.774 30.15 10.248 32.616C10.2841 32.8721 10.3899 33.1134 10.554 33.3134C10.718 33.5134 10.9339 33.6645 11.178 33.75H27.978C28.2391 33.6558 28.4677 33.4888 28.6368 33.2686C28.8059 33.0485 28.9083 32.7846 28.932 32.508C29.388 30.048 29.892 27.594 30.336 25.134C30.402 24.768 30.534 24.642 30.852 24.588C30.985 24.5633 31.1142 24.5209 31.236 24.462C31.4667 24.3212 31.6431 24.1066 31.7366 23.853C31.8301 23.5994 31.8353 23.3217 31.7513 23.0648C31.6673 22.8079 31.499 22.5869 31.2737 22.4375C31.0484 22.2882 30.7793 22.2193 30.51 22.242C29.706 22.44 28.914 22.68 28.11 22.842C25.8702 23.3101 23.5882 23.5474 21.3 23.55C19.5 23.55 17.7 23.55 15.9 23.418C13.5275 23.2866 11.1663 22.9979 8.832 22.554C8.44958 22.5093 8.08447 22.3694 7.77003 22.1472C7.45559 21.925 7.20185 21.6275 7.032 21.282C6.92192 21.0106 6.87421 20.7179 6.89237 20.4256C6.91053 20.1333 6.99411 19.8487 7.13693 19.593C7.27976 19.3373 7.47819 19.117 7.71757 18.9482C7.95695 18.7795 8.23117 18.6666 8.52 18.618C9.28056 18.5444 10.0457 18.7012 10.716 19.068C12.0956 19.7287 13.5365 20.2532 15.018 20.634C16.441 20.9693 17.8905 21.1801 19.35 21.264C20.388 21.318 21.42 21.36 22.452 21.384C22.6277 21.4241 22.8102 21.424 22.986 21.3838C23.1617 21.3437 23.3261 21.2645 23.467 21.1521C23.6079 21.0397 23.7217 20.897 23.7998 20.7346C23.878 20.5722 23.9186 20.3942 23.9186 20.214C23.9186 20.0338 23.878 19.8558 23.7998 19.6934C23.7217 19.531 23.6079 19.3883 23.467 19.2759C23.3261 19.1635 23.1617 19.0843 22.986 19.0442C22.8102 19.004 22.6277 19.0039 22.452 19.044C20.7442 19.0392 19.0386 18.923 17.346 18.696C15.8179 18.5009 14.3263 18.0845 12.918 17.46C12.158 17.2009 11.4752 16.7553 10.932 16.164C10.582 15.7326 10.3523 15.2164 10.2662 14.6676C10.1801 14.1189 10.2406 13.5571 10.4417 13.0393C10.6427 12.5215 10.9771 12.066 11.4109 11.7191C11.8448 11.3722 12.3626 11.1462 12.912 11.064C13.8071 10.9722 14.7115 11.083 15.558 11.388C16.5369 11.655 17.5438 11.806 18.558 11.838C19.1615 11.8662 19.7636 11.7595 20.3206 11.5256C20.8776 11.2916 21.3754 10.9364 21.7778 10.4858C22.1801 10.0352 22.4769 9.50045 22.6465 8.92061C22.816 8.34078 22.8541 7.73042 22.758 7.134C24.666 7.602 27.144 11.244 27.186 13.674L26.334 13.77L22.854 14.208C21.4797 14.3899 20.0902 14.4281 18.708 14.322C18.108 14.274 17.508 14.19 16.908 14.13C16.7392 14.0764 16.5607 14.0608 16.3852 14.0843C16.2097 14.1078 16.0415 14.1699 15.8929 14.266C15.7442 14.3622 15.6186 14.4901 15.5252 14.6405C15.4318 14.7909 15.3728 14.9602 15.3525 15.1361C15.3322 15.312 15.3511 15.4902 15.4078 15.658C15.4645 15.8257 15.5576 15.9789 15.6805 16.1064C15.8034 16.2339 15.953 16.3326 16.1185 16.3955C16.2841 16.4583 16.4615 16.4838 16.638 16.47C18.559 16.7737 20.5114 16.8261 22.446 16.626C23.688 16.494 24.918 16.278 26.16 16.146C27.2083 15.9541 28.2816 15.9419 29.334 16.11C30.0539 16.2755 30.7055 16.6585 31.2003 17.207C31.6951 17.7555 32.0092 18.4429 32.1 19.176C32.1045 19.4652 32.2102 19.7436 32.3987 19.9628C32.5873 20.1821 32.8468 20.3283 33.132 20.376C33.3945 20.4134 33.6619 20.36 33.8899 20.2247C34.118 20.0894 34.293 19.8803 34.386 19.632C34.428 19.53 34.458 19.428 34.494 19.332V19.098C34.446 18.828 34.404 18.546 34.332 18.276ZM25.254 28.89C25.368 27.894 25.482 26.898 25.59 25.89C25.59 25.722 25.638 25.62 25.83 25.596C26.484 25.506 27.138 25.398 27.792 25.302H27.936C27.54 27.342 27.15 29.358 26.736 31.38H24.936C25.074 30.534 25.164 29.712 25.254 28.89ZM20.802 25.95L23.202 25.854C22.998 27.708 22.794 29.538 22.602 31.386H20.802V25.95ZM18.402 25.914V31.386H16.746C16.536 29.538 16.332 27.702 16.146 25.818L18.402 25.914ZM13.602 25.608C13.662 25.608 13.74 25.734 13.752 25.806C13.878 26.85 13.992 27.894 14.106 28.944C14.196 29.742 14.28 30.546 14.37 31.344H12.414L11.214 25.35C12.042 25.428 12.822 25.512 13.602 25.614V25.608Z" fill="#690127"/>
<path d="M27.732 18.588C27.3058 18.6245 26.884 18.7008 26.472 18.816C26.2024 18.8944 25.971 19.0691 25.8217 19.3069C25.6724 19.5447 25.6156 19.8291 25.662 20.106C25.7149 20.4028 25.8776 20.6689 26.1178 20.8512C26.3579 21.0335 26.6579 21.1188 26.958 21.09C27.252 21.036 27.678 20.982 28.092 20.88C28.3759 20.811 28.6235 20.6379 28.7856 20.3949C28.9478 20.1519 29.0126 19.8568 28.9673 19.5682C28.922 19.2796 28.7698 19.0186 28.541 18.8371C28.3121 18.6555 28.0234 18.5666 27.732 18.588Z" fill="#690127"/>
</g>
<defs>
<clipPath id="clip0_352_7026">
<rect width="30" height="30" fill="white" transform="translate(4.5 3.75)"/>
</clipPath>
</defs>
</svg>
