<svg width="39" height="38" viewBox="0 0 39 38" fill="none" xmlns="http://www.w3.org/2000/svg">
<g clip-path="url(#clip0_352_7005)">
<path d="M34.5 21.3938C34.5 21.215 34.5 21.029 34.4428 20.8501C34.4428 20.4639 34.3641 20.0633 34.314 19.6627C34.0229 17.8091 33.4412 16.0131 32.5901 14.3408C30.6867 10.3035 28.0363 6.66289 24.779 3.61123L24.6931 3.54685L24.6145 3.48248L24.5286 3.4181V10.049C24.5618 10.2747 24.5185 10.505 24.4058 10.7033C24.293 10.9016 24.1172 11.0565 23.9063 11.1434C23.7671 11.2028 23.6155 11.2274 23.4647 11.2149C23.3138 11.2024 23.1683 11.1533 23.0408 11.0719C22.901 10.9768 22.7867 10.8487 22.7082 10.699C22.6296 10.5493 22.589 10.3826 22.5901 10.2135C22.5881 8.56657 22.1487 6.9497 21.3169 5.52825C20.5879 4.23412 19.5618 3.1318 18.3231 2.31221C17.0844 1.49261 15.6686 0.979224 14.1924 0.814378C14.1545 0.820648 14.1159 0.820648 14.078 0.814378L14.0136 0.75H11.9678V0.814378C11.9678 1.06474 11.9678 1.31509 11.9678 1.52969C11.9678 2.05901 11.932 2.6098 11.8748 3.14628C11.6878 4.80551 11.1593 6.40805 10.3226 7.85301C9.55007 9.28362 8.70601 10.6713 7.89056 12.0304L7.36123 12.8673C6.32351 14.4417 5.54132 16.1702 5.04363 17.9889C4.89342 18.6327 4.79328 19.348 4.70029 20.0132L4.57153 20.9074C4.57153 21.0218 4.57153 21.1291 4.52146 21.2364V21.3938V22.3094H4.5C4.5 22.4954 4.54292 22.6813 4.55722 22.8673C4.60014 23.2607 4.64306 23.6685 4.70744 24.069C5.02763 26.3156 5.86912 28.456 7.1646 30.3191C8.46008 32.1822 10.1736 33.7163 12.1681 34.7986C13.926 35.7918 15.8783 36.3922 17.8906 36.5583L18.0622 36.5941H18.1481H20.8305L21.4886 36.4939C21.9701 36.4365 22.4478 36.3505 22.9192 36.2364C25.6857 35.5985 28.2226 34.21 30.2511 32.2235C32.2061 30.16 33.5506 27.5948 34.1352 24.8129C34.2392 24.3174 34.3109 23.8156 34.3498 23.3108C34.3498 23.0819 34.3999 22.8387 34.4285 22.5955L34.4714 22.2879V22.152V21.4009L34.5 21.3938ZM30.5515 28.1463C29.6911 29.6513 28.5214 30.9567 27.1194 31.9764C25.7175 32.9961 24.1153 33.7069 22.4185 34.0619C19.3106 34.7963 16.0412 34.3609 13.2339 32.8387C10.5725 31.3844 8.53656 29.0049 7.51145 26.1506C6.87489 24.4562 6.62047 22.6421 6.76638 20.838C6.9123 19.0339 7.45493 17.2843 8.35551 15.7142C8.99928 14.5483 9.69313 13.3966 10.3727 12.2808C10.8448 11.4939 11.3383 10.6785 11.8033 9.87017C12.8273 8.18024 13.5532 6.32682 13.9492 4.39092C14.0064 4.08333 14.0565 3.76145 14.0994 3.45386C14.0994 3.33226 14.1352 3.21066 14.1567 3.08906C15.5916 3.30423 16.9284 3.94693 17.9926 4.93329C19.0568 5.91964 19.799 7.20386 20.1223 8.61838C20.2247 9.19072 20.2916 9.76884 20.3226 10.3494V10.4782C20.3861 11.2521 20.7285 11.9767 21.2861 12.5172C21.8437 13.0577 22.5785 13.3773 23.3541 13.4166C24.1296 13.456 24.8931 13.2124 25.5025 12.7311C26.1119 12.2498 26.5259 11.5636 26.6674 10.8001C26.7183 10.387 26.747 9.97156 26.7532 9.55544C26.7532 9.41238 26.7532 9.26931 26.7532 9.1191L26.7961 9.17632C26.9034 9.31223 27.0036 9.43384 27.0966 9.56259C29.0332 12.0558 30.5438 14.8523 31.5672 17.8387C32.127 19.5325 32.3258 21.3248 32.1508 23.1C31.9759 24.8753 31.4311 26.5943 30.5515 28.1463Z" fill="#690127"/>
<path d="M23.7491 15.8144L13.1929 28.4799L14.9182 29.9179L25.4745 17.2524L23.7491 15.8144Z" fill="#690127"/>
<path d="M15.1367 21.8873C15.9868 21.8893 16.8035 21.5564 17.41 20.9607C18.0165 20.3649 18.3639 19.5543 18.377 18.7042C18.3796 18.2819 18.298 17.8632 18.1371 17.4727C17.9763 17.0822 17.7393 16.7276 17.44 16.4295C17.1528 16.1321 16.8097 15.8944 16.4304 15.7299C16.0511 15.5654 15.6431 15.4774 15.2297 15.471C14.3714 15.4646 13.5456 15.7991 12.9336 16.4009C12.4854 16.8475 12.1792 17.4165 12.0533 18.0366C11.9274 18.6566 11.9873 19.2999 12.2257 19.886C12.4641 20.472 12.8703 20.9746 13.3932 21.3306C13.9162 21.6867 14.5327 21.8804 15.1653 21.8873H15.1367ZM15.852 19.3623C15.7636 19.4535 15.6581 19.5263 15.5414 19.5766C15.4248 19.627 15.2995 19.6538 15.1725 19.6556C14.9214 19.6426 14.6854 19.5323 14.5144 19.348C14.3751 19.214 14.2789 19.0416 14.2381 18.8528C14.1972 18.664 14.2135 18.4672 14.2848 18.2877C14.3562 18.1081 14.4794 17.9539 14.6388 17.8446C14.7981 17.7353 14.9864 17.676 15.1796 17.6742C15.4304 17.6781 15.6695 17.781 15.8449 17.9603C15.9417 18.0523 16.0184 18.1633 16.0701 18.2865C16.1218 18.4096 16.1474 18.5421 16.1453 18.6756C16.1323 18.9308 16.0222 19.1713 15.8377 19.348L15.852 19.3623Z" fill="#690127"/>
<path d="M23.5057 23.8401C22.652 23.8468 21.8359 24.1923 21.237 24.8006C20.638 25.409 20.3052 26.2303 20.3119 27.084C20.3185 27.9377 20.664 28.7538 21.2724 29.3528C21.8807 29.9518 22.7021 30.2845 23.5558 30.2779C23.9782 30.276 24.396 30.1909 24.7854 30.0273C25.1749 29.8637 25.5282 29.6249 25.8252 29.3246C26.1222 29.0242 26.357 28.6683 26.5163 28.2771C26.6755 27.8859 26.756 27.4671 26.7532 27.0447C26.7457 26.1897 26.3997 25.3725 25.7911 24.7719C25.1825 24.1713 24.3607 23.8363 23.5057 23.8401ZM22.5615 27.0519C22.5651 26.7955 22.6675 26.5505 22.8475 26.3679C23.0274 26.1853 23.2709 26.0792 23.5272 26.0719C23.7833 26.0771 24.0272 26.1823 24.2067 26.3652C24.393 26.5563 24.4959 26.8136 24.4928 27.0805C24.495 27.2134 24.4701 27.3453 24.4197 27.4683C24.3693 27.5912 24.2944 27.7027 24.1996 27.7958C24.1121 27.8857 24.0076 27.9574 23.8922 28.0065C23.7767 28.0556 23.6526 28.0813 23.5272 28.0819C23.3954 28.0801 23.2653 28.0518 23.1447 27.9986C23.0241 27.9454 22.9154 27.8684 22.8253 27.7723C22.7351 27.6761 22.6653 27.5627 22.62 27.4389C22.5746 27.3152 22.5548 27.1835 22.5615 27.0519Z" fill="#690127"/>
</g>
<defs>
<clipPath id="clip0_352_7005">
<rect width="30" height="35.8584" fill="white" transform="translate(4.5 0.75)"/>
</clipPath>
</defs>
</svg>
