<svg width="38" height="38" viewBox="0 0 38 38" fill="none" xmlns="http://www.w3.org/2000/svg">
<g clip-path="url(#clip0_352_7070)">
<path d="M33.826 16.488C33.3093 12.9926 31.5549 9.79889 28.882 7.488C26.6975 5.53964 23.9819 4.28633 21.082 3.888C20.71 3.834 20.35 3.792 19.996 3.75H18.004C17.584 3.81 17.158 3.858 16.738 3.924C13.2408 4.44746 10.0474 6.20809 7.738 8.886C5.78995 11.0707 4.53668 13.7862 4.138 16.686C4.084 17.04 4.042 17.4 4 17.754V19.746C4.054 20.148 4.096 20.556 4.168 20.946C5.158 26.586 8.302 30.51 13.558 32.724C14.8948 33.2775 16.314 33.606 17.758 33.696C17.8431 33.7082 17.9273 33.7263 18.01 33.75H20.002C20.422 33.69 20.848 33.642 21.268 33.576C24.3311 33.1085 27.1743 31.7039 29.4069 29.5552C31.6394 27.4064 33.1517 24.619 33.736 21.576C33.838 21.054 33.88 20.52 33.952 19.986C33.952 19.902 33.988 19.818 34.006 19.734V17.754C33.94 17.328 33.892 16.908 33.826 16.488ZM19.972 31.758C17.9886 31.9017 15.9985 31.5923 14.1523 30.8532C12.3062 30.1141 10.6523 28.9647 9.316 27.492C9.84403 27.2921 10.4124 27.2222 10.9731 27.2879C11.5339 27.3537 12.0706 27.5534 12.538 27.87C13.1738 28.336 13.8782 28.7004 14.626 28.95C15.4278 29.1913 16.2742 29.2453 17.1001 29.108C17.926 28.9707 18.7094 28.6457 19.39 28.158C19.8796 27.7842 20.4383 27.5109 21.034 27.354C21.4803 27.2472 21.9437 27.2314 22.3962 27.3077C22.8488 27.384 23.2813 27.5507 23.668 27.798C24.3503 28.2984 25.1077 28.6872 25.912 28.95L26.734 29.142C26.146 30.108 22.168 31.638 19.972 31.758ZM29.416 26.55C29.0906 26.8733 28.6699 27.0837 28.216 27.15C27.728 27.2653 27.2205 27.2714 26.7298 27.1676C26.2392 27.0639 25.7776 26.853 25.378 26.55C24.646 25.9947 23.8028 25.6038 22.906 25.404C22.1733 25.2537 21.4176 25.2544 20.6851 25.4061C19.9527 25.5577 19.2588 25.8571 18.646 26.286C18.163 26.6769 17.6088 26.9703 17.014 27.15C16.5586 27.2623 16.0852 27.2814 15.6223 27.2061C15.1593 27.1309 14.7164 26.9628 14.32 26.712C13.688 26.2546 12.998 25.8833 12.268 25.608C11.0049 25.1938 9.63334 25.26 8.416 25.794C8.17 25.896 8.062 25.872 7.912 25.632C6.80563 23.8637 6.15044 21.8507 6.004 19.77C5.85908 18.0755 6.05462 16.3692 6.5791 14.7514C7.10359 13.1336 7.94643 11.6371 9.058 10.35C10.8793 8.13322 13.4059 6.60834 16.216 6.03C17.128 5.838 18.064 5.766 18.988 5.64V5.718C21.9834 5.70923 24.89 6.73501 27.2165 8.62195C29.5429 10.5089 31.1464 13.1412 31.756 16.074C32.1593 17.8849 32.1587 19.7623 31.7543 21.573C31.3499 23.3836 30.5515 25.0829 29.416 26.55Z" fill="#690127"/>
<path d="M19.0001 13.536C17.9689 13.536 16.9608 13.8418 16.1034 14.4147C15.246 14.9877 14.5777 15.802 14.183 16.7547C13.7884 17.7074 13.6851 18.7558 13.8863 19.7672C14.0875 20.7786 14.5841 21.7077 15.3133 22.4369C16.0425 23.1661 16.9715 23.6627 17.9829 23.8638C18.9944 24.065 20.0427 23.9618 20.9954 23.5671C21.9482 23.1725 22.7625 22.5042 23.3354 21.6468C23.9083 20.7893 24.2141 19.7813 24.2141 18.75C24.2157 18.0649 24.0819 17.3861 23.8205 16.7528C23.559 16.1195 23.175 15.5441 22.6905 15.0596C22.206 14.5752 21.6306 14.1912 20.9973 13.9297C20.364 13.6682 19.6853 13.5344 19.0001 13.536ZM18.9581 22.002C18.3153 21.9937 17.6893 21.795 17.1594 21.431C16.6294 21.0671 16.2192 20.5542 15.9806 19.9572C15.742 19.3602 15.6857 18.7059 15.8188 18.0769C15.9519 17.4479 16.2685 16.8725 16.7285 16.4234C17.1886 15.9743 17.7714 15.6716 18.4034 15.5536C19.0353 15.4355 19.6881 15.5075 20.2792 15.7603C20.8703 16.0132 21.3732 16.4355 21.7244 16.9741C22.0756 17.5126 22.2592 18.1432 22.2521 18.786C22.249 19.2141 22.1611 19.6372 21.9935 20.0311C21.8259 20.425 21.5819 20.7818 21.2756 21.0808C20.9693 21.3798 20.6068 21.6152 20.2091 21.7733C19.8113 21.9314 19.3861 22.0092 18.9581 22.002Z" fill="#690127"/>
<path d="M22.252 11.64C22.417 11.7728 22.601 11.88 22.798 11.958C23.0145 11.986 23.2342 11.9426 23.4237 11.8342C23.6132 11.7259 23.7622 11.5587 23.848 11.358C23.9379 11.1767 23.9667 10.971 23.9299 10.772C23.8931 10.573 23.7928 10.3912 23.644 10.254C23.008 9.60598 22.372 8.96398 21.718 8.33398C21.6286 8.23592 21.5197 8.15759 21.3983 8.10399C21.2769 8.05039 21.1457 8.02271 21.013 8.02271C20.8803 8.02271 20.7491 8.05039 20.6277 8.10399C20.5063 8.15759 20.3974 8.23592 20.308 8.33398C20.2152 8.42816 20.1423 8.54006 20.0938 8.66302C20.0452 8.78598 20.0219 8.91747 20.0252 9.04963C20.0286 9.1818 20.0585 9.31193 20.1133 9.43226C20.1681 9.55259 20.2465 9.66065 20.344 9.74998C20.974 10.386 21.598 11.028 22.252 11.64Z" fill="#690127"/>
<path d="M11.6201 13.998C11.4382 13.9087 11.2322 13.881 11.0331 13.9188C10.834 13.9567 10.6526 14.0582 10.5161 14.208C9.86812 14.844 9.22613 15.48 8.59613 16.134C8.49967 16.2243 8.42278 16.3335 8.37021 16.4548C8.31765 16.576 8.29053 16.7068 8.29053 16.839C8.29053 16.9711 8.31765 17.1019 8.37021 17.2231C8.42278 17.3444 8.49967 17.4536 8.59613 17.544C8.68689 17.6383 8.79568 17.7135 8.91605 17.7651C9.03642 17.8166 9.16592 17.8435 9.29686 17.844C9.4278 17.8446 9.55751 17.8188 9.67832 17.7683C9.79912 17.7178 9.90856 17.6436 10.0001 17.55C10.6601 16.914 11.3061 16.266 11.9381 15.606C12.0664 15.4378 12.1695 15.2518 12.2441 15.054C12.2648 14.8346 12.2156 14.6143 12.1036 14.4247C11.9915 14.235 11.8223 14.0856 11.6201 13.998Z" fill="#690127"/>
<path d="M9.99983 20.118C9.91061 20.018 9.80214 19.9371 9.68091 19.8801C9.55969 19.823 9.4282 19.791 9.29432 19.786C9.16044 19.7809 9.02691 19.803 8.90174 19.8507C8.77657 19.8985 8.66232 19.971 8.56583 20.064C8.4694 20.158 8.39343 20.2709 8.34266 20.3956C8.2919 20.5203 8.26744 20.6542 8.27082 20.7888C8.2742 20.9235 8.30534 21.0559 8.3623 21.178C8.41926 21.3 8.50081 21.4089 8.60183 21.498C9.12983 22.044 9.67583 22.578 10.2158 23.112C10.3475 23.2547 10.4899 23.3871 10.6418 23.508C10.7855 23.6198 10.9593 23.6863 11.1409 23.6991C11.3225 23.712 11.5038 23.6705 11.6618 23.58C11.8427 23.4829 11.9902 23.3338 12.0854 23.1519C12.1806 22.9701 12.2191 22.7639 12.1958 22.56C12.1102 22.3463 11.9972 22.1447 11.8598 21.96C11.2658 21.348 10.6418 20.736 9.99983 20.118Z" fill="#690127"/>
<path d="M28.1259 20.082C27.4779 20.718 26.8299 21.354 26.2119 22.008C26.0802 22.1749 25.9749 22.3611 25.8999 22.56C25.8719 22.7765 25.9153 22.9962 26.0236 23.1857C26.1319 23.3753 26.2992 23.5242 26.4999 23.61C26.6774 23.6968 26.8781 23.7245 27.0725 23.6888C27.2669 23.6532 27.4447 23.5562 27.5799 23.412C28.2399 22.768 28.8939 22.114 29.5419 21.45C29.6355 21.3599 29.71 21.2518 29.7609 21.1322C29.8118 21.0126 29.838 20.884 29.838 20.754C29.838 20.624 29.8118 20.4954 29.7609 20.3758C29.71 20.2562 29.6355 20.1481 29.5419 20.058C29.4485 19.9645 29.3372 19.8907 29.2147 19.8411C29.0922 19.7915 28.9609 19.7671 28.8288 19.7693C28.6966 19.7715 28.5663 19.8004 28.4455 19.8541C28.3247 19.9078 28.216 19.9853 28.1259 20.082Z" fill="#690127"/>
<path d="M26.872 15.876C27.202 15.876 27.532 15.876 27.862 15.876C28.1079 15.8738 28.3441 15.7795 28.524 15.6118C28.7039 15.4441 28.8145 15.2152 28.834 14.97C28.8464 14.8482 28.8347 14.7252 28.7995 14.608C28.7642 14.4907 28.7062 14.3816 28.6287 14.2868C28.5513 14.1921 28.4558 14.1135 28.3479 14.0557C28.24 13.9979 28.1218 13.962 28 13.95C27.2528 13.899 26.5031 13.899 25.756 13.95C25.6312 13.9602 25.5099 13.9958 25.3994 14.0546C25.289 14.1134 25.1917 14.1942 25.1136 14.292C25.0355 14.3897 24.9782 14.5025 24.9452 14.6232C24.9123 14.7439 24.9044 14.8701 24.922 14.994C24.9458 15.2385 25.0597 15.4655 25.2416 15.6307C25.4234 15.796 25.6602 15.8877 25.906 15.888L26.872 15.876Z" fill="#690127"/>
<path d="M15.1241 11.952H16.1501C16.3966 11.9446 16.631 11.8438 16.8059 11.67C16.9808 11.4962 17.0831 11.2624 17.0921 11.016C17.1087 10.7696 17.0271 10.5266 16.8653 10.3401C16.7034 10.1535 16.4744 10.0385 16.2281 10.02C15.5081 10.02 14.7821 9.98403 14.0621 10.02C13.9372 10.0251 13.8146 10.0557 13.7019 10.1099C13.5892 10.1641 13.4888 10.2407 13.4067 10.3351C13.3247 10.4295 13.2628 10.5396 13.2249 10.6588C13.187 10.7779 13.1738 10.9036 13.1861 11.028C13.194 11.279 13.3004 11.5167 13.4824 11.6896C13.6643 11.8626 13.9071 11.9569 14.1581 11.952H15.1241Z" fill="#690127"/>
</g>
<defs>
<clipPath id="clip0_352_7070">
<rect width="30" height="30" fill="white" transform="translate(4 3.75)"/>
</clipPath>
</defs>
</svg>
