<svg width="39" height="38" viewBox="0 0 39 38" fill="none" xmlns="http://www.w3.org/2000/svg">
<g clip-path="url(#clip0_352_7033)">
<path d="M34.29 23.334C34.0838 22.8171 33.723 22.3765 33.2569 22.0726C32.7908 21.7687 32.2421 21.6162 31.686 21.636C31.5143 21.6498 31.3419 21.6221 31.1831 21.5553C31.0244 21.4884 30.8841 21.3844 30.774 21.252C30.498 20.928 30.174 20.652 29.868 20.334C27.3741 17.7671 24.0088 16.2279 20.436 16.02C17.2068 15.7892 13.9951 16.663 11.328 18.498C10.1922 19.3104 9.1463 20.2417 8.208 21.276C8.09941 21.3959 7.96565 21.4904 7.81628 21.5526C7.66692 21.6149 7.50564 21.6433 7.344 21.636C6.78322 21.6116 6.22869 21.7619 5.75691 22.066C5.28513 22.3701 4.91934 22.8132 4.71 23.334C4.62 23.532 4.572 23.754 4.5 23.934V24.816C4.578 25.032 4.638 25.254 4.728 25.47C4.87759 25.8262 5.10252 26.1457 5.38735 26.4067C5.67217 26.6677 6.01013 26.864 6.378 26.982C6.46799 27.0078 6.55067 27.0544 6.61943 27.118C6.6882 27.1815 6.74113 27.2603 6.774 27.348C7.56 29.202 8.358 31.044 9.174 32.898C9.27599 33.2564 9.51243 33.5616 9.834 33.75H29.166C29.4914 33.5756 29.7381 33.2838 29.856 32.934C30.642 31.074 31.44 29.226 32.256 27.378C32.2843 27.2924 32.3329 27.2149 32.3977 27.1522C32.4625 27.0895 32.5415 27.0435 32.628 27.018C33.0811 26.8765 33.4891 26.6187 33.8112 26.2702C34.1334 25.9217 34.3585 25.4947 34.464 25.032C34.4824 24.9687 34.5044 24.9066 34.53 24.846V23.964C34.428 23.754 34.38 23.55 34.29 23.334ZM29.418 29.448C29.082 30.228 28.746 31.002 28.422 31.788C28.4024 31.8562 28.3589 31.915 28.2993 31.9536C28.2398 31.9922 28.1683 32.008 28.098 31.998H10.908C10.764 31.998 10.662 31.998 10.59 31.824C9.96 30.324 9.3 28.83 8.7 27.336C8.69753 27.29 8.69753 27.2439 8.7 27.198H30.384L29.418 29.448ZM31.614 25.392H7.416C7.16761 25.4269 6.91517 25.3673 6.70854 25.2251C6.50192 25.0829 6.35614 24.8684 6.3 24.624C6.26454 24.4953 6.25629 24.3607 6.27579 24.2286C6.29529 24.0966 6.3421 23.9701 6.41324 23.8572C6.48438 23.7442 6.57829 23.6474 6.68896 23.5728C6.79963 23.4982 6.92464 23.4475 7.056 23.424C7.38446 23.3849 7.71557 23.3729 8.046 23.388C8.21613 23.3932 8.38543 23.3623 8.54267 23.2971C8.69991 23.2319 8.84149 23.134 8.958 23.01C9.858 22.14 10.722 21.21 11.688 20.442C13.4773 18.9932 15.6497 18.0967 17.94 17.862C19.8731 17.6098 21.8384 17.8096 23.6812 18.4458C25.524 19.0819 27.1941 20.137 28.56 21.528C29.076 22.032 29.586 22.548 30.09 23.064C30.1933 23.1744 30.319 23.2615 30.4587 23.3195C30.5984 23.3774 30.7488 23.4049 30.9 23.4C31.134 23.4 31.368 23.4 31.602 23.4C31.7437 23.3859 31.8867 23.4011 32.0222 23.4447C32.1577 23.4883 32.2828 23.5593 32.3897 23.6532C32.4966 23.7472 32.5831 23.8622 32.6437 23.991C32.7043 24.1198 32.7378 24.2597 32.742 24.402C32.7396 24.5433 32.7076 24.6825 32.6482 24.8107C32.5888 24.9389 32.5032 25.0533 32.397 25.1465C32.2908 25.2397 32.1663 25.3097 32.0315 25.352C31.8966 25.3943 31.7544 25.4079 31.614 25.392Z" fill="#690127"/>
<path d="M18.66 8.01C18.1101 8.67278 17.8197 9.51279 17.8428 10.3737C17.866 11.2346 18.2012 12.0578 18.786 12.69C18.8648 12.7767 18.9599 12.847 19.0658 12.8969C19.1718 12.9468 19.2866 12.9754 19.4036 12.981C19.5206 12.9865 19.6375 12.969 19.7477 12.9294C19.858 12.8897 19.9593 12.8288 20.046 12.75C20.1327 12.6712 20.203 12.5761 20.2529 12.4702C20.3028 12.3642 20.3314 12.2494 20.3369 12.1324C20.3425 12.0154 20.325 11.8985 20.2853 11.7882C20.2457 11.678 20.1848 11.5767 20.106 11.49C19.7807 11.147 19.6034 10.6898 19.6124 10.2172C19.6213 9.74453 19.8159 9.29439 20.154 8.964C20.7888 8.32619 21.1467 7.46388 21.15 6.564C21.1855 6.01142 21.073 5.45937 20.8241 4.96474C20.5752 4.47011 20.1989 4.05079 19.734 3.75L19.266 3.75C19.1367 3.82295 19.0142 3.90729 18.9 4.002C18.8132 4.08491 18.7442 4.18455 18.697 4.29489C18.6498 4.40523 18.6255 4.52399 18.6255 4.644C18.6255 4.76401 18.6498 4.88277 18.697 4.99311C18.7442 5.10345 18.8132 5.20309 18.9 5.286C19.2121 5.61951 19.3858 6.05921 19.3858 6.516C19.3858 6.97279 19.2121 7.41249 18.9 7.746C18.816 7.836 18.732 7.95 18.66 8.01Z" fill="#690127"/>
<path d="M26.472 12.15C26.4681 12.6143 26.5569 13.0747 26.733 13.5043C26.9092 13.9339 27.1693 14.3241 27.498 14.652C27.6293 14.7992 27.8078 14.896 28.0028 14.9256C28.1978 14.9552 28.3971 14.9157 28.566 14.814C28.7317 14.7256 28.8627 14.5839 28.9378 14.4119C29.0129 14.2399 29.0278 14.0475 28.98 13.866C28.9267 13.6813 28.8323 13.5111 28.704 13.368C28.5017 13.1601 28.3579 12.9025 28.2873 12.6211C28.2167 12.3397 28.2218 12.0447 28.302 11.766C28.4169 11.4163 28.6051 11.0951 28.854 10.824C29.4588 10.1562 29.7912 9.286 29.7857 8.38512C29.7801 7.48425 29.437 6.61819 28.824 5.95796C28.7453 5.87168 28.6502 5.80177 28.5444 5.75221C28.4386 5.70265 28.3241 5.67442 28.2074 5.66913C28.0906 5.66383 27.974 5.68158 27.8641 5.72136C27.7543 5.76114 27.6533 5.82217 27.567 5.90096C27.4808 5.97975 27.4109 6.07477 27.3613 6.18058C27.3117 6.28639 27.2835 6.40093 27.2782 6.51765C27.2729 6.63438 27.2907 6.751 27.3304 6.86086C27.3702 6.97073 27.4313 7.07168 27.51 7.15796C27.678 7.32917 27.8101 7.53222 27.8985 7.75518C27.9869 7.97815 28.0298 8.21653 28.0248 8.45632C28.0198 8.69612 27.9669 8.93249 27.8692 9.15155C27.7715 9.37062 27.6311 9.56795 27.456 9.73196C26.8325 10.3835 26.4806 11.2482 26.472 12.15Z" fill="#690127"/>
<path d="M10.188 14.616C10.3471 14.7903 10.5689 14.8942 10.8047 14.9049C11.0404 14.9156 11.2707 14.8322 11.445 14.673C11.6192 14.5139 11.7231 14.2921 11.7338 14.0564C11.7445 13.8206 11.6611 13.5903 11.502 13.416C11.3321 13.2446 11.1985 13.0408 11.109 12.8167C11.0195 12.5926 10.976 12.3529 10.9811 12.1116C10.9861 11.8704 11.0396 11.6326 11.1384 11.4124C11.2371 11.1923 11.3791 10.9942 11.556 10.83C12.1868 10.1595 12.5368 9.27272 12.534 8.35205C12.5237 7.45707 12.1741 6.59934 11.556 5.95205C11.4802 5.85927 11.3865 5.78277 11.2804 5.72715C11.1744 5.67154 11.0581 5.63795 10.9387 5.62843C10.8193 5.6189 10.6993 5.63362 10.5857 5.67171C10.4721 5.70979 10.3675 5.77046 10.278 5.85005C10.1913 5.93275 10.1217 6.03174 10.0732 6.14134C10.0248 6.25095 9.99842 6.36903 9.99563 6.48883C9.99285 6.60863 10.0137 6.72781 10.057 6.83955C10.1003 6.95129 10.1652 7.0534 10.248 7.14005C10.4131 7.32953 10.5468 7.54425 10.644 7.77605C10.7728 8.10151 10.8006 8.45829 10.7235 8.79975C10.6464 9.14121 10.4682 9.45149 10.212 9.69005C9.57187 10.3487 9.21179 11.2298 9.20732 12.1482C9.20284 13.0667 9.55432 13.9512 10.188 14.616Z" fill="#690127"/>
<path d="M15.3839 20.922C15.2264 20.7713 15.0169 20.6871 14.7989 20.6871C14.5809 20.6871 14.3714 20.7713 14.2139 20.922C13.8599 21.246 13.5119 21.594 13.1819 21.954C13.0643 22.0803 12.9894 22.2404 12.9679 22.4116C12.9463 22.5828 12.9792 22.7565 13.0619 22.908C13.1371 23.0619 13.2528 23.1923 13.3965 23.2854C13.5403 23.3784 13.7067 23.4305 13.8779 23.436C14.0521 23.3898 14.218 23.317 14.3699 23.22C14.7654 22.8744 15.1382 22.5037 15.4859 22.11C15.5576 22.0255 15.6119 21.9276 15.6455 21.822C15.6792 21.7164 15.6917 21.6052 15.6822 21.4948C15.6728 21.3843 15.6415 21.2769 15.5903 21.1786C15.5391 21.0803 15.4689 20.9931 15.3839 20.922Z" fill="#690127"/>
<path d="M24.8522 20.97C24.7702 20.8881 24.6729 20.8231 24.5659 20.7787C24.4588 20.7344 24.3441 20.7115 24.2282 20.7115C24.1123 20.7115 23.9975 20.7344 23.8905 20.7787C23.7834 20.8231 23.6861 20.8881 23.6042 20.97C23.5222 21.052 23.4572 21.1492 23.4129 21.2563C23.3685 21.3634 23.3457 21.4781 23.3457 21.594C23.3457 21.7099 23.3685 21.8247 23.4129 21.9317C23.4572 22.0388 23.5222 22.1361 23.6042 22.218C23.8982 22.53 24.2042 22.818 24.5162 23.124C24.7038 23.2535 24.905 23.3622 25.1162 23.448C25.2975 23.4336 25.4714 23.3702 25.6194 23.2645C25.7674 23.1588 25.8838 23.0148 25.9562 22.848C26.0335 22.6884 26.0583 22.5084 26.0271 22.3338C25.9958 22.1591 25.9101 21.9989 25.7822 21.876C25.5002 21.582 25.1642 21.276 24.8522 20.97Z" fill="#690127"/>
<path d="M19.5001 20.688C19.2732 20.6861 19.0543 20.7718 18.8889 20.9271C18.7236 21.0824 18.6244 21.2955 18.6121 21.522C18.6121 21.696 18.6121 21.87 18.6121 22.05C18.6121 22.23 18.6121 22.398 18.6121 22.572C18.6121 22.8043 18.7044 23.0272 18.8686 23.1914C19.0329 23.3557 19.2557 23.448 19.4881 23.448C19.7204 23.448 19.9432 23.3557 20.1075 23.1914C20.2718 23.0272 20.3641 22.8043 20.3641 22.572C20.3641 22.224 20.3641 21.87 20.3641 21.522C20.352 21.2996 20.2562 21.09 20.0959 20.9353C19.9356 20.7806 19.7228 20.6922 19.5001 20.688Z" fill="#690127"/>
</g>
<defs>
<clipPath id="clip0_352_7033">
<rect width="30" height="30" fill="white" transform="translate(4.5 3.75)"/>
</clipPath>
</defs>
</svg>
