<svg width="38" height="38" viewBox="0 0 38 38" fill="none" xmlns="http://www.w3.org/2000/svg">
<g clip-path="url(#clip0_352_7014)">
<path d="M16.306 3.75H17.2C17.9021 3.89577 18.5356 4.27161 19 4.818C19.4611 4.26762 20.096 3.89089 20.8 3.75H21.676C21.676 3.75 21.706 3.78 21.724 3.786C22.3811 3.91059 22.9799 4.24542 23.4301 4.74C23.8803 5.23458 24.1575 5.86212 24.22 6.528C24.3114 7.08409 24.277 7.6536 24.1191 8.1946C23.9613 8.73561 23.6841 9.23431 23.308 9.654C23.014 10.032 22.672 10.38 22.312 10.782H22.678C24.316 10.782 25.96 10.824 27.598 10.782C27.9827 10.7605 28.3676 10.8201 28.7277 10.957C29.0878 11.0939 29.4152 11.305 29.6884 11.5765C29.9617 11.8481 30.1748 12.1741 30.314 12.5334C30.4531 12.8927 30.5151 13.2772 30.496 13.662C30.448 16.14 30.496 18.624 30.496 21.102V21.444C30.8644 21.4552 31.2268 21.5407 31.5613 21.6954C31.8958 21.8501 32.1956 22.0709 32.4428 22.3443C32.6899 22.6178 32.8792 22.9383 32.9994 23.2868C33.1195 23.6352 33.168 24.0043 33.142 24.372C33.094 26.772 33.142 29.214 33.142 31.638V31.95C33.682 32.064 33.976 32.334 34.018 32.742C34.0387 32.8802 34.0264 33.0213 33.9823 33.1539C33.9382 33.2865 33.8634 33.4068 33.764 33.505C33.6646 33.6032 33.5434 33.6766 33.4103 33.7192C33.2772 33.7617 33.1359 33.7723 32.998 33.75C23.706 33.75 14.414 33.75 5.122 33.75C4.89006 33.7779 4.65533 33.7298 4.45303 33.6129C4.25074 33.4961 4.09178 33.3168 4 33.102L4 32.634C4.06531 32.447 4.18334 32.2829 4.33985 32.1616C4.49636 32.0402 4.68465 31.9667 4.882 31.95V24.15C4.86825 23.7197 4.96069 23.2926 5.15114 22.9064C5.34159 22.5203 5.6242 22.187 5.974 21.936C6.42537 21.6147 6.96217 21.4351 7.516 21.42V13.572C7.49426 13.2004 7.55134 12.8285 7.68347 12.4805C7.81561 12.1326 8.01983 11.8165 8.28272 11.5531C8.54562 11.2896 8.86125 11.0847 9.20891 10.9518C9.55657 10.8189 9.9284 10.7611 10.3 10.782H15.652C15.268 10.344 14.902 9.966 14.578 9.552C13.9398 8.81158 13.6149 7.85183 13.672 6.876C13.6899 6.22815 13.8995 5.60016 14.2744 5.07149C14.6493 4.54282 15.1726 4.13722 15.778 3.906C15.952 3.846 16.132 3.804 16.306 3.75ZM6.658 28.038V31.95H31.342V28.038C30.6326 28.4249 29.8138 28.5618 29.0171 28.4269C28.2205 28.2919 27.4924 27.8929 26.95 27.294C26.614 27.6653 26.2051 27.9635 25.7489 28.17C25.2926 28.3764 24.7987 28.4867 24.298 28.494C23.7943 28.4943 23.2962 28.3875 22.8369 28.1806C22.3776 27.9737 21.9676 27.6715 21.634 27.294C21.2984 27.6738 20.8855 27.9773 20.4229 28.1843C19.9603 28.3913 19.4588 28.4969 18.952 28.494C18.4532 28.4854 17.9615 28.3745 17.5074 28.1681C17.0533 27.9617 16.6464 27.6642 16.312 27.294C15.98 27.6647 15.5735 27.9613 15.1191 28.1643C14.6648 28.3673 14.1727 28.4723 13.675 28.4723C13.1773 28.4723 12.6852 28.3673 12.2309 28.1643C11.7765 27.9613 11.37 27.6647 11.038 27.294C10.4964 27.8901 9.7705 28.2874 8.97646 28.4222C8.18241 28.5571 7.36608 28.4218 6.658 28.038ZM9.28 21.438H28.702V17.376C27.9869 17.7646 27.1623 17.9024 26.3597 17.7675C25.5571 17.6327 24.8228 17.2329 24.274 16.632C23.9409 17.003 23.5334 17.2997 23.078 17.5029C22.6227 17.706 22.1296 17.811 21.631 17.811C21.1324 17.811 20.6394 17.706 20.184 17.5029C19.7286 17.2997 19.3211 17.003 18.988 16.632C18.6518 17.0079 18.2404 17.3089 17.7805 17.5156C17.3205 17.7224 16.8223 17.8301 16.318 17.832C15.8197 17.8362 15.3262 17.7346 14.8701 17.534C14.414 17.3333 14.0056 17.0382 13.672 16.668C13.1244 17.2601 12.3938 17.6511 11.5974 17.7784C10.801 17.9057 9.98491 17.7619 9.28 17.37V21.438ZM19.012 23.238H8.086C7.9 23.238 7.714 23.238 7.528 23.238C7.4106 23.2388 7.2945 23.2627 7.18633 23.3083C7.07817 23.354 6.98006 23.4205 6.8976 23.5041C6.81514 23.5877 6.74995 23.6867 6.70575 23.7954C6.66155 23.9042 6.63921 24.0206 6.64 24.138C6.625 24.4218 6.625 24.7062 6.64 24.99C6.63894 25.272 6.70623 25.5501 6.83609 25.8005C6.96596 26.0509 7.15454 26.266 7.3857 26.4276C7.61687 26.5892 7.88374 26.6924 8.16347 26.7283C8.44321 26.7642 8.7275 26.7319 8.992 26.634C9.33195 26.5162 9.62644 26.2948 9.83414 26.001C10.0418 25.7072 10.1523 25.3558 10.15 24.996C10.1682 24.7754 10.2688 24.5697 10.4316 24.4198C10.5944 24.2699 10.8077 24.1867 11.029 24.1867C11.2503 24.1867 11.4636 24.2699 11.6264 24.4198C11.7892 24.5697 11.8898 24.7754 11.908 24.996C11.9087 25.2776 11.9771 25.5549 12.1073 25.8045C12.2376 26.0541 12.4259 26.2689 12.6564 26.4306C12.8869 26.5923 13.1529 26.6963 13.4319 26.7337C13.711 26.7712 13.995 26.7411 14.26 26.646C14.6075 26.5197 14.9055 26.2857 15.1106 25.9781C15.3157 25.6705 15.4171 25.3053 15.4 24.936C15.4014 24.7685 15.4516 24.605 15.5442 24.4655C15.6369 24.3259 15.7682 24.2163 15.922 24.15C16.0561 24.0807 16.2059 24.0473 16.3567 24.0529C16.5075 24.0585 16.6544 24.103 16.7829 24.1821C16.9115 24.2612 17.0175 24.3722 17.0906 24.5042C17.1636 24.6363 17.2013 24.7851 17.2 24.936C17.2045 25.1935 17.2643 25.4471 17.3752 25.6796C17.4862 25.912 17.6457 26.118 17.8431 26.2835C18.0405 26.449 18.271 26.5702 18.5193 26.639C18.7675 26.7077 19.0276 26.7224 19.282 26.682C19.697 26.6225 20.0764 26.4147 20.35 26.097C20.6236 25.7793 20.7728 25.3732 20.77 24.954C20.7736 24.7977 20.8182 24.645 20.8993 24.5113C20.9804 24.3776 21.0951 24.2675 21.232 24.192C21.3646 24.1182 21.5142 24.0801 21.666 24.0814C21.8178 24.0828 21.9666 24.1236 22.0979 24.1999C22.2292 24.2761 22.3384 24.3851 22.4149 24.5163C22.4913 24.6474 22.5324 24.7962 22.534 24.948C22.5388 25.4254 22.733 25.8813 23.0739 26.2155C23.4149 26.5497 23.8746 26.7348 24.352 26.73C24.8294 26.7252 25.2853 26.531 25.6195 26.1901C25.9537 25.8491 26.1388 25.3894 26.134 24.912C26.134 24.6797 26.2263 24.4569 26.3906 24.2926C26.5549 24.1283 26.7777 24.036 27.01 24.036C27.2423 24.036 27.4651 24.1283 27.6294 24.2926C27.7937 24.4569 27.886 24.6797 27.886 24.912C27.886 25.044 27.886 25.182 27.94 25.32C28.0283 25.712 28.2452 26.0631 28.5562 26.3176C28.8671 26.572 29.2543 26.7151 29.656 26.724C30.0591 26.7197 30.4482 26.5755 30.7568 26.3161C31.0654 26.0568 31.2744 25.6983 31.348 25.302C31.3931 24.9821 31.4111 24.6589 31.402 24.336C31.402 23.52 31.09 23.208 30.274 23.208L19.012 23.238ZM19.012 12.576H10.264C10.1316 12.5621 9.99781 12.5778 9.87222 12.6218C9.74662 12.6659 9.63236 12.7373 9.53767 12.8308C9.44298 12.9244 9.37022 13.0378 9.32462 13.1628C9.27903 13.2879 9.26174 13.4215 9.274 13.554C9.274 13.8 9.274 14.046 9.274 14.286C9.274 14.5169 9.31947 14.7455 9.40782 14.9588C9.49617 15.172 9.62566 15.3658 9.78891 15.5291C9.95215 15.6923 10.146 15.8218 10.3592 15.9102C10.5725 15.9985 10.8011 16.044 11.032 16.044C11.2629 16.044 11.4915 15.9985 11.7048 15.9102C11.918 15.8218 12.1118 15.6923 12.2751 15.5291C12.4383 15.3658 12.5678 15.172 12.6562 14.9588C12.7445 14.7455 12.79 14.5169 12.79 14.286C12.8082 14.0654 12.9088 13.8597 13.0716 13.7098C13.2344 13.5599 13.4477 13.4767 13.669 13.4767C13.8903 13.4767 14.1036 13.5599 14.2664 13.7098C14.4292 13.8597 14.5298 14.0654 14.548 14.286C14.548 14.418 14.548 14.556 14.596 14.688C14.6835 15.123 14.9344 15.508 15.2972 15.7636C15.6599 16.0192 16.1069 16.126 16.546 16.062C16.9707 16.008 17.3623 15.8044 17.6504 15.4877C17.9385 15.1709 18.1043 14.7619 18.118 14.334C18.1208 14.1722 18.1675 14.0141 18.2531 13.8768C18.3387 13.7394 18.46 13.6278 18.604 13.554C18.7368 13.4848 18.8852 13.4511 19.0348 13.456C19.1845 13.461 19.3303 13.5045 19.4582 13.5823C19.5862 13.6602 19.6918 13.7697 19.765 13.9003C19.8382 14.031 19.8764 14.1783 19.876 14.328C19.9022 14.7773 20.0992 15.1995 20.4266 15.5083C20.7539 15.8172 21.187 15.9892 21.637 15.9892C22.087 15.9892 22.5201 15.8172 22.8474 15.5083C23.1748 15.1995 23.3718 14.7773 23.398 14.328C23.398 14.0957 23.4903 13.8729 23.6546 13.7086C23.8189 13.5443 24.0417 13.452 24.274 13.452C24.5063 13.452 24.7291 13.5443 24.8934 13.7086C25.0577 13.8729 25.15 14.0957 25.15 14.328C25.15 14.436 25.15 14.544 25.198 14.646C25.2697 15.0006 25.4466 15.3254 25.7056 15.578C25.9646 15.8306 26.2937 15.9992 26.65 16.062C27.0131 16.123 27.3862 16.0676 27.7159 15.9038C28.0457 15.74 28.3152 15.4762 28.486 15.15C28.6965 14.6862 28.7793 14.1746 28.726 13.668C28.726 12.846 28.414 12.534 27.598 12.534L19.012 12.576ZM19.012 10.848C19.258 10.848 19.582 10.848 19.732 10.734C20.5287 10.0072 21.2858 9.23805 22 8.43C22.2896 8.11993 22.468 7.72241 22.5071 7.29993C22.5462 6.87745 22.4438 6.45396 22.216 6.096C22.127 5.93521 21.9998 5.79876 21.8457 5.69863C21.6916 5.5985 21.5152 5.53777 21.3321 5.52177C21.149 5.50577 20.9648 5.535 20.7956 5.60688C20.6265 5.67876 20.4776 5.79109 20.362 5.934C20.1598 6.19525 19.9961 6.4842 19.876 6.792C19.678 7.236 19.384 7.506 19 7.488C18.8034 7.47941 18.6142 7.41022 18.4585 7.28991C18.3027 7.1696 18.188 7.00407 18.13 6.816C18.0166 6.53778 17.8673 6.27556 17.686 6.036C17.5565 5.86141 17.3819 5.72529 17.181 5.64218C16.9802 5.55907 16.7605 5.5321 16.5455 5.56413C16.3304 5.59617 16.1281 5.68602 15.9602 5.82408C15.7923 5.96214 15.665 6.14323 15.592 6.348C15.4366 6.6747 15.3832 7.04065 15.4389 7.39812C15.4945 7.7556 15.6566 8.08801 15.904 8.352C16.51 9.054 17.2 9.684 17.86 10.35C17.9907 10.5227 18.1656 10.6568 18.3663 10.7382C18.567 10.8195 18.786 10.845 19 10.812L19.012 10.848Z" fill="#690127"/>
</g>
<defs>
<clipPath id="clip0_352_7014">
<rect width="30" height="30.006" fill="white" transform="translate(4 3.75)"/>
</clipPath>
</defs>
</svg>
